<svg width="62" height="13" fill="none" xmlns="http://www.w3.org/2000/svg"><path d="M0 6.3V4.443l5.968-2.785V3.86L2.745 5.318l3.223 1.46v2.307L0 6.3zm62-1.857V6.3l-5.968 2.785V6.883l3.223-1.459-3.223-1.459V1.658L62 4.443z" fill="#fff"/><path d="M13.965 12.732c-2.388 0-3.714-.584-3.714-1.645 0-.584.478-1.034 1.274-1.194-.544-.305-.876-.782-.876-1.3 0-.69.464-1.206 1.327-1.511a2.24 2.24 0 01-1.021-1.897 2.157 2.157 0 01.849-1.75c.57-.465 1.313-.704 2.214-.704.955 0 1.764.279 2.335.81.371-.478.928-.703 1.737-.703v1.697a3.483 3.483 0 00-1.075.133c.04.17.063.343.066.517a2.166 2.166 0 01-.849 1.764c-.57.464-1.3.69-2.215.69a4.67 4.67 0 01-.955-.106c-.318.093-.49.212-.49.384 0 .252.159.332.543.332h2.613c1.525 0 2.388.703 2.388 1.91 0 1.604-1.565 2.573-4.151 2.573zm.026-1.446c1.42 0 2.096-.225 2.096-.69 0-.252-.226-.398-.597-.398h-1.963c-.889 0-1.26.146-1.26.518 0 .385.557.57 1.724.57zm.04-7.095c-.623 0-.982.358-.982.995 0 .623.385 1.008.982 1.008s.968-.372.968-1.008c0-.637-.345-.996-.968-.996zm5.476 4.695c-.636-.65-.955-1.512-.955-2.6 0-1.034.332-1.883.982-2.546.65-.677 1.486-1.009 2.506-1.009.942 0 1.711.292 2.282.889.583.597.875 1.38.875 2.374 0 .318-.026.61-.04.835h-4.416c.146.862.61 1.274 1.552 1.274a2.36 2.36 0 001.605-.716l1.167 1.3c-.703.795-1.645 1.153-2.984 1.153-1.075 0-1.937-.318-2.574-.954zm1.274-3.409h2.241c-.013-.742-.384-1.127-1.02-1.127-.637 0-1.062.385-1.221 1.127zm6.233 3.409c-.637-.65-.955-1.512-.955-2.6 0-1.034.331-1.883.981-2.546.65-.677 1.486-1.009 2.507-1.009.941 0 1.71.292 2.281.889.584.597.876 1.38.876 2.374 0 .318-.027.61-.04.835h-4.417c.146.862.61 1.274 1.552 1.274a2.36 2.36 0 001.605-.716l1.167 1.3c-.703.795-1.645 1.153-2.984 1.153-1.074 0-1.936-.318-2.573-.954zm1.273-3.409h2.242c-.013-.742-.385-1.127-1.021-1.127-.637 0-1.062.385-1.22 1.127zm9.96.08l2.666 4.124H38.26L36.642 7.03l-.49.517v2.135h-2.229V0h2.229v5.027L38.14 2.89h2.679l-2.573 2.666zm3.395 4.124V0h2.228v9.681h-2.228zm4.363-.795c-.637-.65-.955-1.512-.955-2.6 0-1.034.331-1.883.981-2.546.65-.677 1.486-1.009 2.507-1.009.942 0 1.71.292 2.281.889.584.597.875 1.38.875 2.374 0 .318-.026.61-.04.835h-4.416c.146.862.61 1.274 1.552 1.274a2.36 2.36 0 001.605-.716l1.167 1.3c-.703.795-1.645 1.153-2.984 1.153-1.075 0-1.936-.318-2.573-.954zm1.273-3.409h2.242c-.014-.742-.385-1.127-1.022-1.127-.636 0-1.06.385-1.22 1.127z" fill="#73F9BC"/></svg>