<svg width="80" height="63" fill="none" xmlns="http://www.w3.org/2000/svg"><path d="M59.257 20.844a19.237 19.237 0 01-1.1 5.067 19.245 19.245 0 01-6.16 8.537 19.213 19.213 0 01-11.998 4.18A19.316 19.316 0 0126.342 5.655 19.315 19.315 0 0139.999 0a19.262 19.262 0 0114.403 6.442L50.66 9.626A14.372 14.372 0 0039.999 4.91a14.407 14.407 0 00-14.402 14.402A14.404 14.404 0 0040 33.714a14.322 14.322 0 009.503-3.584 14.352 14.352 0 003.298-4.219h-9.937l.986-5.067h15.408z" fill="#73F9BC"/><path d="M41.922 13.239a4.622 4.622 0 01-7.889 3.264 4.622 4.622 0 013.265-7.888 4.624 4.624 0 014.624 4.623zm-23.147 6.074a21.202 21.202 0 019.387-17.62C18.775 4.377 9.388 10.25 0 19.314c9.387 9.066 18.774 14.939 28.162 17.619a21.202 21.202 0 01-9.387-17.62zM51.838 1.694a21.204 21.204 0 019.388 17.619 21.203 21.203 0 01-9.388 17.619c9.387-2.683 18.775-8.557 28.162-17.62-9.387-9.065-18.774-14.938-28.162-17.618zM1.408 53.992V51.68l7.432-3.468v2.742L4.827 52.77l4.013 1.817v2.873l-7.432-3.468zM78.62 51.68v2.312l-7.432 3.468v-2.742l4.014-1.816-4.014-1.817V48.21l7.433 3.468z" fill="#fff"/><path d="M18.799 62.002c-2.974 0-4.625-.727-4.625-2.048 0-.727.595-1.288 1.586-1.487-.677-.38-1.09-.974-1.09-1.618 0-.86.578-1.503 1.652-1.883a2.79 2.79 0 01-1.272-2.362 2.688 2.688 0 011.058-2.18c.71-.579 1.635-.876 2.758-.876 1.19 0 2.197.347 2.907 1.008.463-.595 1.156-.876 2.164-.876v2.115a4.339 4.339 0 00-1.34.165c.051.21.079.427.083.644a2.697 2.697 0 01-1.057 2.197c-.71.578-1.619.859-2.758.859a5.815 5.815 0 01-1.19-.132c-.396.115-.611.264-.611.479 0 .313.198.413.677.413h3.254c1.9 0 2.973.875 2.973 2.378 0 1.998-1.948 3.204-5.17 3.204zm.033-1.8c1.767 0 2.61-.28 2.61-.86 0-.313-.281-.495-.744-.495h-2.445c-1.106 0-1.569.182-1.569.644 0 .48.694.71 2.148.71zm.05-8.836c-.777 0-1.223.446-1.223 1.238 0 .777.48 1.256 1.222 1.256.744 0 1.206-.463 1.206-1.256 0-.792-.43-1.239-1.206-1.239zm6.82 5.846c-.793-.809-1.19-1.882-1.19-3.237 0-1.288.413-2.345 1.223-3.171.809-.843 1.85-1.256 3.121-1.256 1.173 0 2.13.363 2.841 1.107.727.743 1.09 1.718 1.09 2.956 0 .396-.033.76-.05 1.04h-5.499c.182 1.074.76 1.586 1.933 1.586a2.938 2.938 0 001.998-.892l1.454 1.62c-.876.99-2.049 1.436-3.716 1.436-1.338 0-2.412-.396-3.205-1.189zm1.586-4.244h2.79c-.015-.925-.478-1.405-1.27-1.405-.794 0-1.322.48-1.52 1.405zm7.762 4.244c-.793-.809-1.19-1.882-1.19-3.237 0-1.288.414-2.345 1.223-3.171.81-.843 1.85-1.256 3.122-1.256 1.172 0 2.13.363 2.84 1.107.728.743 1.091 1.718 1.091 2.956 0 .396-.033.76-.05 1.04h-5.5c.182 1.074.76 1.586 1.933 1.586a2.938 2.938 0 001.998-.892l1.454 1.62c-.876.99-2.048 1.436-3.716 1.436-1.338 0-2.412-.396-3.205-1.189zm1.586-4.244h2.791c-.016-.925-.479-1.404-1.271-1.404-.793 0-1.322.479-1.52 1.404zm12.404.099l3.32 5.136h-3.304L47.04 54.9l-.611.644v2.66h-2.775V46.146h2.775v6.26l2.477-2.66h3.337l-3.205 3.32zm4.227 5.136V46.148h2.775v12.056h-2.775zm5.433-.991c-.792-.809-1.189-1.882-1.189-3.237 0-1.288.413-2.345 1.223-3.171.81-.843 1.85-1.256 3.121-1.256 1.173 0 2.13.363 2.842 1.107.727.743 1.09 1.718 1.09 2.956 0 .396-.033.76-.05 1.04h-5.5c.181 1.074.76 1.586 1.932 1.586a2.94 2.94 0 001.999-.892l1.453 1.62c-.875.99-2.048 1.436-3.716 1.436-1.338 0-2.411-.396-3.204-1.189zm1.587-4.244h2.791c-.017-.925-.479-1.404-1.272-1.404-.792 0-1.321.479-1.52 1.404z" fill="#73F9BC"/></svg>