<svg width="80" height="63" viewBox="0 0 80 63" fill="none" xmlns="http://www.w3.org/2000/svg">
<path d="M59.2567 20.8438C59.1207 22.5749 58.751 24.2796 58.1576 25.9114C56.9373 29.2744 54.8037 32.2306 51.9964 34.4483C48.5871 37.1616 44.3567 38.6355 39.9994 38.628C37.4627 38.6281 34.9508 38.1285 32.6072 37.1578C30.2636 36.1871 28.1341 34.7642 26.3404 32.9705C24.5467 31.1768 23.1239 29.0474 22.1532 26.7038C21.1825 24.3601 20.6829 21.8483 20.683 19.3116C20.6838 14.1893 22.7194 9.27705 26.3418 5.65547C29.9643 2.03389 34.8771 -0.000426345 39.9994 1.80027e-05C42.7187 -0.00369978 45.408 0.56845 47.8904 1.6788C50.3727 2.78915 52.5918 4.41255 54.4016 6.44217L50.6606 9.62619C49.3117 8.13883 47.666 6.95062 45.8297 6.13816C43.9935 5.32571 42.0074 4.90703 39.9994 4.90912C36.18 4.9104 32.5175 6.42818 29.8168 9.12885C27.1162 11.8295 25.5984 15.4921 25.5971 19.3114C25.5976 23.131 27.1151 26.794 29.816 29.4948C32.5168 32.1956 36.1798 33.7132 39.9994 33.7137C43.4984 33.7202 46.8788 32.4455 49.5024 30.1303C50.8565 28.9433 51.9751 27.512 52.7999 25.9112H42.8632L43.8491 20.8436L59.2567 20.8438Z" fill="#73F9BC"/>
<path d="M41.9216 13.2385C41.9205 14.4639 41.4329 15.6387 40.5659 16.5047C39.699 17.3707 38.5237 17.8571 37.2983 17.8569C36.0737 17.8561 34.8995 17.3692 34.0335 16.5033C33.1676 15.6373 32.6807 14.4631 32.6799 13.2385C32.6797 12.0131 33.1661 10.8378 34.0321 9.97087C34.8981 9.10395 36.0729 8.61634 37.2983 8.61523C38.5244 8.61535 39.7003 9.10246 40.5673 9.96947C41.4343 10.8365 41.9215 12.0124 41.9216 13.2385Z" fill="white"/>
<path d="M18.7751 19.3126C18.7728 15.8308 19.628 12.402 21.2652 9.32917C22.9024 6.2563 25.2711 3.6339 28.1621 1.6936C18.775 4.37637 9.38765 10.2493 0 19.3126C9.38709 28.3788 18.7744 34.252 28.1621 36.9319C25.271 34.9915 22.9023 32.3691 21.2652 29.2961C19.628 26.2232 18.7728 22.7944 18.7751 19.3126Z" fill="white"/>
<path d="M51.8381 1.6936C54.7292 3.63386 57.098 6.25623 58.7353 9.32909C60.3725 12.4019 61.2279 15.8307 61.2257 19.3126C61.2279 22.7944 60.3726 26.2233 58.7353 29.2962C57.098 32.3691 54.7292 34.9916 51.8381 36.9319C61.2253 34.2486 70.6126 28.3755 80 19.3126C70.6129 10.2467 61.2256 4.37371 51.8381 1.6936Z" fill="white"/>
<path d="M1.40784 53.9921V51.6793L8.84025 48.2111V50.953L4.82682 52.7698L8.84025 54.5866V57.4603L1.40784 53.9921Z" fill="white"/>
<path d="M78.6207 51.6793V53.9921L71.1883 57.4601V54.7185L75.2017 52.9018L71.1883 51.0848V48.2111L78.6207 51.6793Z" fill="white"/>
<path d="M18.7988 62.0021C15.8253 62.0021 14.1742 61.2753 14.1742 59.9537C14.1742 59.2269 14.7689 58.6655 15.7601 58.4671C15.083 58.0873 14.67 57.4927 14.67 56.8486C14.67 55.9896 15.2481 55.3456 16.322 54.9658C15.9287 54.7107 15.606 54.3606 15.3837 53.9478C15.1614 53.535 15.0468 53.0729 15.0504 52.6041C15.0436 52.1832 15.1358 51.7666 15.3194 51.3879C15.5031 51.0092 15.773 50.6788 16.1076 50.4235C16.8178 49.8453 17.7428 49.5481 18.8658 49.5481C20.0552 49.5481 21.0625 49.895 21.7733 50.5555C22.2358 49.9608 22.9293 49.6803 23.9369 49.6803V51.7947C23.4846 51.7796 23.0327 51.8352 22.5976 51.9598C22.6484 52.1709 22.676 52.3869 22.6801 52.6041C22.6887 53.0275 22.5974 53.447 22.4137 53.8286C22.2301 54.2102 21.9591 54.5433 21.6229 54.8007C20.9127 55.3787 20.0042 55.6597 18.8646 55.6597C18.4647 55.6567 18.0661 55.6124 17.6753 55.5276C17.2788 55.6434 17.064 55.7919 17.064 56.0065C17.064 56.3203 17.2623 56.4196 17.7413 56.4196H20.995C22.8943 56.4196 23.9685 57.2949 23.9685 58.7984C23.9685 60.7964 22.0196 62.0021 18.7988 62.0021ZM18.8319 60.2018C20.5992 60.2018 21.4415 59.9211 21.4415 59.3428C21.4415 59.0289 21.1607 58.8472 20.6983 58.8472H18.2534C17.1469 58.8472 16.6844 59.0289 16.6844 59.4912C16.6847 59.9707 17.3784 60.2018 18.8319 60.2018ZM18.8814 51.3656C18.1052 51.3656 17.6591 51.8115 17.6591 52.6044C17.6591 53.3807 18.1382 53.8599 18.8814 53.8599C19.6247 53.8599 20.0872 53.3974 20.0872 52.6044C20.0872 51.8115 19.6577 51.3651 18.8814 51.3651V51.3656Z" fill="#73F9BC"/>
<path d="M25.7017 57.2124C24.9088 56.4031 24.5123 55.3296 24.5123 53.9753C24.5123 52.687 24.9253 51.6301 25.7346 50.8036C26.5438 49.9612 27.5848 49.5481 28.856 49.5481C30.0288 49.5481 30.9866 49.9114 31.6973 50.6546C32.4242 51.3979 32.7874 52.3726 32.7874 53.6109C32.7874 54.0074 32.7543 54.3708 32.7378 54.6517H27.2383C27.42 55.725 27.9981 56.2375 29.1708 56.2375C29.9269 56.2086 30.6427 55.889 31.1691 55.3455L32.6228 56.9641C31.7473 57.9553 30.5744 58.401 28.9066 58.401C27.5687 58.4016 26.4947 58.0054 25.7017 57.2124ZM27.2876 52.9679H30.0788C30.0628 52.0429 29.6003 51.5633 28.8074 51.5633C28.0144 51.5633 27.4858 52.0429 27.2876 52.9679Z" fill="#73F9BC"/>
<path d="M35.0502 57.2124C34.2573 56.4031 33.8608 55.3296 33.8608 53.9753C33.8608 52.687 34.2736 51.6301 35.083 50.8036C35.8923 49.9612 36.9332 49.5481 38.2045 49.5481C39.3773 49.5481 40.3351 49.9114 41.0459 50.6546C41.7727 51.3979 42.136 52.3726 42.136 53.6109C42.136 54.0074 42.103 54.3708 42.0864 54.6517H36.5863C36.768 55.725 37.346 56.2375 38.5188 56.2375C39.2749 56.2086 39.9908 55.8891 40.5172 55.3455L41.9709 56.9641C41.0954 57.9553 39.9225 58.401 38.2547 58.401C36.9167 58.4016 35.843 58.0054 35.0502 57.2124ZM36.6361 52.9679H39.4275C39.411 52.0428 38.9484 51.5637 38.1556 51.5637C37.3628 51.5637 36.8341 52.0429 36.6358 52.9679H36.6361Z" fill="#73F9BC"/>
<path d="M49.0395 53.0669L52.3593 58.2035H49.0555L47.0409 54.9003L46.4299 55.5442V58.2035H43.6547V46.1465H46.4299V52.4064L48.9074 49.7471H52.2436L49.0395 53.0669Z" fill="#73F9BC"/>
<path d="M53.2672 58.2035V46.1465H56.0425V58.2035H53.2672Z" fill="#73F9BC"/>
<path d="M58.7009 57.2124C57.908 56.4031 57.5115 55.3296 57.5115 53.9753C57.5115 52.687 57.9245 51.6301 58.7338 50.8036C59.5432 49.9612 60.584 49.5481 61.8553 49.5481C63.0281 49.5481 63.9859 49.9114 64.6967 50.6546C65.4235 51.3979 65.7867 52.3726 65.7867 53.6109C65.7867 54.0074 65.7538 54.3708 65.7373 54.6517H60.2368C60.4185 55.725 60.9966 56.2375 62.1693 56.2375C62.9255 56.2085 63.6413 55.889 64.1678 55.3455L65.6215 56.9641C64.7461 57.9553 63.5731 58.401 61.9053 58.401C60.5672 58.4016 59.4939 58.0054 58.7009 57.2124ZM60.2868 52.9679H63.078C63.0615 52.0428 62.5991 51.5637 61.8063 51.5637C61.0135 51.5637 60.485 52.0429 60.2868 52.9679Z" fill="#73F9BC"/>
</svg>
