<svg width="62" height="13" viewBox="0 0 62 13" fill="none" xmlns="http://www.w3.org/2000/svg">
<path d="M0 6.29983V4.44278L5.96803 1.65784V3.85956L2.74536 5.31835L5.96803 6.77725V9.08477L0 6.29983Z" fill="white"/>
<path d="M61.9999 4.44278V6.29983L56.0319 9.08456V6.88315L59.2545 5.42436L56.0319 3.96536V1.65784L61.9999 4.44278Z" fill="white"/>
<path d="M13.9646 12.7317C11.5769 12.7317 10.2511 12.1481 10.2511 11.0869C10.2511 10.5033 10.7286 10.0525 11.5245 9.89319C10.9809 9.58821 10.6493 9.11079 10.6493 8.59357C10.6493 7.90381 11.1134 7.3867 11.9757 7.08172C11.6599 6.87688 11.4008 6.59574 11.2223 6.26428C11.0438 5.93283 10.9518 5.56174 10.9547 5.1853C10.9492 4.84737 11.0232 4.51288 11.1707 4.20877C11.3181 3.90466 11.5349 3.63941 11.8036 3.43437C12.3739 2.9701 13.1166 2.73145 14.0184 2.73145C14.9734 2.73145 15.7822 3.01 16.3529 3.54038C16.7244 3.06285 17.2813 2.83756 18.0903 2.83756V4.53544C17.7271 4.52325 17.3643 4.56797 17.0149 4.66798C17.0557 4.83751 17.0779 5.01097 17.0811 5.1853C17.088 5.52531 17.0147 5.86215 16.8672 6.16859C16.7197 6.47502 16.5022 6.74243 16.2322 6.94918C15.6619 7.41323 14.9325 7.63894 14.0174 7.63894C13.6963 7.6365 13.3762 7.60094 13.0624 7.53283C12.744 7.62578 12.5716 7.74506 12.5716 7.91739C12.5716 8.16931 12.7307 8.24912 13.1154 8.24912H15.728C17.2531 8.24912 18.1157 8.95193 18.1157 10.1592C18.1157 11.7635 16.5507 12.7317 13.9646 12.7317ZM13.9911 11.2861C15.4102 11.2861 16.0866 11.0607 16.0866 10.5963C16.0866 10.3443 15.8611 10.1984 15.4898 10.1984H13.5266C12.6381 10.1984 12.2667 10.3443 12.2667 10.7155C12.267 11.1005 12.824 11.2861 13.9911 11.2861ZM14.0309 4.19087C13.4076 4.19087 13.0494 4.54891 13.0494 5.18562C13.0494 5.80895 13.4341 6.19373 14.0309 6.19373C14.6277 6.19373 14.9991 5.82232 14.9991 5.18562C14.9991 4.54891 14.6542 4.19045 14.0309 4.19045V4.19087Z" fill="#73F9BC"/>
<path d="M19.5074 8.88571C18.8707 8.23585 18.5524 7.37386 18.5524 6.28637C18.5524 5.25194 18.884 4.40322 19.5338 3.73956C20.1836 3.06317 21.0195 2.73145 22.0402 2.73145C22.9819 2.73145 23.751 3.02316 24.3217 3.61996C24.9054 4.21677 25.197 4.99949 25.197 5.99381C25.197 6.31216 25.1705 6.60398 25.1572 6.82948H20.7412C20.8872 7.69136 21.3513 8.10289 22.293 8.10289C22.9001 8.07964 23.4749 7.82306 23.8976 7.38659L25.0649 8.68632C24.3619 9.4822 23.4201 9.84013 22.0809 9.84013C21.0065 9.84056 20.1441 9.52241 19.5074 8.88571ZM20.7808 5.47744H23.0221C23.0093 4.73472 22.6379 4.34963 22.0012 4.34963C21.3645 4.34963 20.94 4.73472 20.7808 5.47744Z" fill="#73F9BC"/>
<path d="M27.014 8.88571C26.3773 8.23585 26.059 7.37386 26.059 6.28637C26.059 5.25194 26.3904 4.40322 27.0403 3.73956C27.6902 3.06317 28.526 2.73145 29.5468 2.73145C30.4885 2.73145 31.2576 3.02316 31.8283 3.61996C32.412 4.21677 32.7037 4.99949 32.7037 5.99381C32.7037 6.31216 32.6772 6.60398 32.6639 6.82948H28.2474C28.3933 7.69136 28.8575 8.10289 29.7992 8.10289C30.4063 8.07965 30.9812 7.82307 31.4039 7.38659L32.5712 8.68632C31.8681 9.4822 30.9263 9.84013 29.5871 9.84013C28.5127 9.84056 27.6506 9.52241 27.014 8.88571ZM28.2874 5.47744H30.5288C30.5156 4.73462 30.1442 4.34994 29.5076 4.34994C28.871 4.34994 28.4464 4.73472 28.2872 5.47744H28.2874Z" fill="#73F9BC"/>
<path d="M38.2469 5.55694L40.9127 9.6815H38.2598L36.6421 7.0291L36.1516 7.5461V9.6815H33.9231V0H36.1516V5.02656L38.1409 2.89117H40.8198L38.2469 5.55694Z" fill="#73F9BC"/>
<path d="M41.6417 9.6815V0H43.8702V9.6815H41.6417Z" fill="#73F9BC"/>
<path d="M46.0049 8.88571C45.3682 8.23585 45.0498 7.37386 45.0498 6.28637C45.0498 5.25194 45.3814 4.40322 46.0313 3.73956C46.6811 3.06317 47.5169 2.73145 48.5378 2.73145C49.4795 2.73145 50.2486 3.02316 50.8193 3.61996C51.4029 4.21677 51.6945 4.99949 51.6945 5.99381C51.6945 6.31216 51.6681 6.60398 51.6549 6.82948H47.2381C47.3841 7.69136 47.8482 8.10289 48.7899 8.10289C49.3971 8.07961 49.9719 7.82304 50.3946 7.38659L51.5619 8.68632C50.859 9.4822 49.9171 9.84013 48.5779 9.84013C47.5034 9.84056 46.6416 9.52241 46.0049 8.88571ZM47.2783 5.47744H49.5196C49.5063 4.73462 49.135 4.34994 48.4984 4.34994C47.8618 4.34994 47.4374 4.73472 47.2783 5.47744Z" fill="#73F9BC"/>
</svg>
